<svg xmlns:xlink="http://www.w3.org/1999/xlink" viewBox="0 0 3175 1852" style="shape-rendering:geometricPrecision; text-rendering:geometricPrecision; image-rendering:optimizeQuality; fill-rule:evenodd; clip-rule:evenodd" version="1.1" height="18.5208mm" width="31.7498mm" xml:space="preserve" xmlns="http://www.w3.org/2000/svg">
 <defs>
  <style type="text/css">
   
    .fil0 {fill:white}
    .fil1 {fill:white;fill-rule:nonzero}
   
  </style>
 </defs>
 <g id="Layer_x0020_1">
  <metadata id="CorelCorpID_0Corel-Layer"></metadata>
  <path d="M2079 607c6,-4 14,-18 19,-24l53 -73 35 39c5,5 8,7 12,12 4,5 7,9 11,13l148 164c13,15 52,51 55,64 2,7 3,14 5,20 3,13 6,25 9,38 9,37 1,28 26,47l149 114c6,5 8,7 14,10 8,6 6,6 13,11l189 146c19,14 36,28 54,42 9,7 19,14 28,21 9,8 19,14 26,22l-1447 0 7 -10c4,-4 5,-7 8,-10l148 -166c6,-7 11,-11 17,-18l49 -56c11,-11 21,-26 32,-37l33 -37c11,-9 42,-49 50,-55l214 -99c15,-7 34,-17 48,-22l-5 -156zm-538 -73c-1,-50 -1,-103 -2,-153 0,-13 6,-17 13,-26 17,-27 99,-150 109,-161 9,6 28,33 40,47 4,4 9,10 13,15l51 63c15,21 91,107 102,126 -6,8 -11,14 -17,21l-93 118c-12,15 -7,14 -19,16 -29,7 -96,13 -114,28l-80 60 -3 -154zm-1183 627c-22,15 -47,29 -69,43 -23,15 -45,28 -68,43 -22,14 -46,27 -69,42 -12,7 -22,14 -33,21 -9,5 -26,18 -32,21l3009 0 -416 -325c-57,-46 -118,-89 -175,-135 -19,-16 -17,-8 -24,-37 -4,-14 -13,-63 -20,-74 -3,-4 -11,-11 -15,-16l-73 -81c-6,-6 -8,-10 -15,-16 -21,-20 -38,-45 -58,-65 -8,-7 -9,-9 -15,-16 -38,-44 -79,-85 -117,-129 -6,-6 -8,-11 -15,-16l-29 -32c-6,-8 -22,-27 -29,-32 -21,9 -78,55 -102,71 -10,6 -24,18 -33,22 -8,-6 -15,-17 -21,-24l-99 -121c-62,-71 -117,-146 -178,-217 -8,-8 -13,-16 -21,-23 -16,7 -132,96 -156,114 -22,16 -134,101 -155,113 -24,-13 -44,-37 -68,-49 -13,12 -99,117 -115,136l-107 124c-18,23 -36,47 -57,68 -5,5 -5,5 -9,10l-19 22c-28,-13 -54,-50 -83,-63 -8,12 -16,27 -23,40 -8,14 -15,27 -23,40 -8,15 -43,72 -44,82 52,0 50,2 95,-20 37,-17 42,-31 80,-6 61,39 50,32 122,47 50,11 43,-8 54,-31l16 1c9,12 7,33 12,46 5,7 61,38 67,42 17,10 36,19 55,27l18 9 -4 27 -38 14 -5 15c12,0 29,-5 40,-2 0,9 -7,10 -14,14 -13,8 -47,28 -54,37 -36,-1 -29,-5 -57,11 -24,14 -21,7 -28,38 -5,25 -1,22 14,45l26 39c9,13 18,27 27,40 7,11 22,31 26,40 5,11 9,105 7,120 -12,0 -40,-9 -51,-13 -5,-10 -10,-32 -14,-45 -7,-24 -1,-24 -23,-33 -28,-11 -54,-23 -82,-34 -46,-19 -38,-14 -57,-58 -10,-21 -10,-17 -31,-28 -9,-5 -10,-3 -14,-15 -2,-6 -5,-14 -7,-20l-5 4c-3,4 0,1 -2,4 -4,5 -3,6 -6,10 -3,5 -8,12 -12,18 -24,35 -44,78 -64,115 -17,33 -11,27 1,67 4,12 1,11 12,17l58 31c6,3 14,7 15,12 -39,1 -80,0 -119,0 -29,0 -27,0 -41,-17 -18,-24 -40,-40 -49,-71l-27 -91c-12,-41 -3,-17 -4,-46l-14 4 -14 146c12,2 34,8 43,13 2,12 6,25 3,37 -9,3 -66,0 -78,-1 -37,-2 -46,9 -61,-21 -16,-31 -44,-80 -54,-112 -13,6 -38,36 -51,46 -8,5 -18,16 -25,23 -6,6 -7,6 -13,11 -6,4 -8,6 -10,13l30 22c8,7 23,14 26,25 -5,4 -36,18 -44,17 -6,-1 -33,-20 -39,-25 -83,-58 -77,-38 -60,-99z" class="fil0"></path>
  <path d="M358 1161l204 -127c15,-10 40,-20 48,-34 4,-6 7,-11 10,-17l159 -281c-37,-1 -74,0 -112,0 -23,0 -90,-5 -105,5l-141 138c-39,39 -35,28 -34,77 1,17 2,35 2,52 0,16 0,39 2,54 1,23 -2,29 -8,47 -8,29 -16,58 -25,86z" class="fil0"></path>
  <path d="M45 1412l0 398 91 0 0 -158 121 158 115 0 -137 -165c49,-15 82,-55 82,-115 0,-78 -56,-118 -130,-118l-142 0zm91 176l0 -104 10 0c34,0 75,2 75,52 0,50 -41,52 -75,52l-10 0z" class="fil1"></path>
  <path d="M372 1610c0,117 83,207 201,207 114,0 200,-90 200,-207 0,-116 -89,-206 -200,-206 -109,0 -201,90 -201,206zm98 0c0,-59 33,-118 103,-118 71,0 102,59 102,118 0,60 -30,119 -102,119 -74,0 -103,-59 -103,-119z" class="fil1" id="1"></path>
  <path d="M1015 1412l-83 0 -161 398 97 0 30 -80 151 0 30 80 97 0 -161 -398zm3 238l-89 0 44 -115 1 0 44 115z" class="fil1" id="2"></path>
  <path d="M1192 1412l0 398 90 0 0 -158 122 158 115 0 -137 -165c49,-15 82,-55 82,-115 0,-78 -56,-118 -130,-118l-142 0zm90 176l0 -104 11 0c34,0 75,2 75,52 0,50 -41,52 -75,52l-11 0z" class="fil1" id="3"></path>
  <path d="M1749 1728c-91,0 -131,-64 -131,-118 0,-53 40,-116 131,-116 46,0 78,24 78,24l39 -77c0,0 -45,-37 -131,-37 -113,0 -216,93 -216,207 0,114 103,206 216,206 86,0 131,-37 131,-37l-39 -77c0,0 -32,25 -78,25z" class="fil1" id="4"></path>
  <path d="M1900 1412l0 398 91 0 0 -158 122 158 115 0 -137 -165c49,-15 81,-55 81,-115 0,-78 -56,-118 -129,-118l-143 0zm91 176l0 -104 11 0c34,0 75,2 75,52 0,50 -41,52 -75,52l-11 0z" class="fil1" id="5"></path>
  <path d="M2448 1412l-84 0 -161 398 98 0 29 -80 152 0 29 80 97 0 -160 -398zm3 238l-90 0 44 -115 1 0 45 115z" class="fil1" id="6"></path>
  <polygon points="2854,1412 2624,1412 2624,1810 2715,1810 2715,1650 2843,1650 2843,1570 2715,1570 2715,1491 2854,1491" class="fil1" id="7"></polygon>
  <polygon points="2849,1491 2944,1491 2944,1810 3034,1810 3034,1491 3129,1491 3129,1412 2849,1412" class="fil1" id="8"></polygon>
 </g>
</svg>
