<svg width="14px" height="14px" viewBox="0 0 20 20" version="1.1" xmlns:xlink="http://www.w3.org/1999/xlink" xmlns="http://www.w3.org/2000/svg">
  <g id="38-Info-Copy-3">
    <path d="M0.816327 6.78367C0.365714 6.78367 0 6.42041 0 5.96735L0 0.816326C0 0.363265 0.365714 0 0.816327 0C1.26694 0 1.63265 0.363265 1.63265 0.816326L1.63265 5.96735C1.63265 6.42041 1.26694 6.78367 0.816327 6.78367" transform="translate(9.251837 8.036735)" id="Fill-20" fill="#404040" stroke="none"></path>
    <path d="M0 1.02041C0 0.457143 0.456735 0 1.02041 0C1.58408 0 2.04082 0.457143 2.04082 1.02041C2.04082 1.58367 1.58408 2.04082 1.02041 2.04082C0.456735 2.04082 0 1.58367 0 1.02041" transform="translate(9.047755 4.771429)" id="Fill-21" fill="#404040" stroke="none"></path>
    <path d="M0 9.79592C0 15.1959 4.39429 19.5918 9.79592 19.5918C15.1976 19.5918 19.5918 15.1959 19.5918 9.79592C19.5918 4.39592 15.1976 0 9.79592 0C4.39429 0 0 4.39592 0 9.79592ZM1.63265 9.79592C1.63265 5.29388 5.29469 1.63265 9.79592 1.63265C14.2971 1.63265 17.9592 5.29388 17.9592 9.79592C17.9592 14.298 14.2971 17.9592 9.79592 17.9592C5.29469 17.9592 1.63265 14.298 1.63265 9.79592Z" transform="translate(0.2722449 0)" id="Fill-18" fill="#404040" fill-rule="evenodd" stroke="none"></path>
  </g>
</svg>